<?xml version="1.0" encoding="utf-8"?>
<!-- Generator: Adobe Illustrator 25.4.1, SVG Export Plug-In . SVG Version: 6.00 Build 0)  -->
<svg version="1.1" id="Layer_1" xmlns="http://www.w3.org/2000/svg" xmlns:xlink="http://www.w3.org/1999/xlink" x="0px" y="0px"
	 viewBox="0 0 700 97" style="enable-background:new 0 0 700 97;" xml:space="preserve">
<style type="text/css">
	.st0{fill:#2A50A0;}
	.st1{fill:url(#SVGID_1_);}
	.st2{fill:#FFFFFF;}
	.st3{fill:url(#SVGID_00000084527768299087159620000004520144978479872923_);}
	.st4{fill:#ECEDEF;}
	.st5{font-family:'BodoniBT-Book';}
	.st6{font-size:9.2038px;}
	.st7{fill:none;stroke:#2A50A0;stroke-width:0.75;stroke-miterlimit:10;}
	.st8{fill:url(#SVGID_00000155867467624870748610000004805079332133910162_);}
	.st9{fill:url(#SVGID_00000179643789201183762350000012258528331196772481_);}
	.st10{fill:#2A50A0;stroke:#2A50A0;stroke-width:2;stroke-miterlimit:10;}
	.st11{font-size:86.4549px;}
</style>
<g id="Layer_2_00000021837716415458206190000004406606511122171556_">
</g>
<g id="Layer_1_00000013162542532738211530000005000436261249807789_">
	<g>
		<path class="st0" d="M21.1,56.1L16,65.5h10.7v-6.4c0-2.5,0.2-5.7,0.3-8.6c0.1-0.9,0.1-1.8,0.2-2.5l0.1-1h-2.1L25,47.6
			C23.7,50.5,22.3,53.2,21.1,56.1z M24.7,59.1v4.4h-5.4l3.5-6.6v-0.1c0.7-1.5,1.4-2.9,2.1-4.4C24.7,54.9,24.7,57.2,24.7,59.1z
			 M89.3,59.8C89.3,80.4,72.5,97,51.9,97c-9.9,0-19.2-3.8-26.2-10.7c-0.3-0.3-0.8-0.9-1.1-1.1v-10H4.5V65l0.2-0.2l16.4-28.1h17.6
			v26.9h5.1v11.7h-6.1v-1.9h4.1v-7.7h-5.1V38.6H22.2L6.5,65.5v7.7h20.2v11.1c0.2,0.2,0.3,0.4,0.5,0.5c6.7,6.6,15.5,10.1,24.8,10.1
			c19.5,0,35.3-15.8,35.3-35.2S71.4,24.6,51.9,24.6c-7.8,0-15.3,2.5-21.5,7.2l-1.1-1.5c6.5-4.9,14.4-7.6,22.7-7.6
			C72.6,22.6,89.3,39.3,89.3,59.8z"/>
		<g>
			<g transform="matrix(1 0 0 1 197.5247 55.8376)">
			</g>
			<g transform="matrix(1 0 0 1 197.4754 49.5476)">
			</g>
		</g>
		<g>
			
				<radialGradient id="SVGID_1_" cx="308.102" cy="435.95" r="15.3488" gradientTransform="matrix(2.3384 0 0 2.3326 -663.4948 -955.7538)" gradientUnits="userSpaceOnUse">
				<stop  offset="0" style="stop-color:#838282"/>
				<stop  offset="0.3173" style="stop-color:#858484;stop-opacity:0.6827"/>
				<stop  offset="0.4942" style="stop-color:#8D8C8C;stop-opacity:0.5058"/>
				<stop  offset="0.6366" style="stop-color:#9A9A9A;stop-opacity:0.3634"/>
				<stop  offset="0.7606" style="stop-color:#ADADAE;stop-opacity:0.2394"/>
				<stop  offset="0.8726" style="stop-color:#C6C6C7;stop-opacity:0.1274"/>
				<stop  offset="0.9745" style="stop-color:#E3E4E6;stop-opacity:2.551991e-02"/>
				<stop  offset="1" style="stop-color:#ECEDEF;stop-opacity:0"/>
			</radialGradient>
			<path class="st1" d="M41.1,75.2c0.1,0.4,0.2,0.9,0.4,1.5c0.5,1.5,0.8,2.5,1.2,3.3c0.5,0.7,0.8,0.8,2,2c0,0,1,1,3.1,3.1
				c1.2,1.2,2.5,2.5,3.7,3.7c1.1,1,2.1,2.1,3.2,3.1c0.7,0.7,1.2,1.2,1.9,1.9c0.2,0.1,0.5,0.1,0.9,0.1c0.2,0,0.4,0,0.7-0.1
				C71,91.6,84.7,81.3,86,65.1c0.1-0.5-0.1,0.2-0.1-0.3L72.3,51.2c-0.1,0.1-24,18.2-24,18.2l-2,1.5c-0.5,0.3-0.9,0.7-1.2,1
				c-0.6,0.5-1.1,0.9-1.7,1.3c-0.5,0.4-1,0.8-1.5,1.1C41.6,74.7,41.3,74.9,41.1,75.2z"/>
			<g>
				<g>
					<g>
						<g>
							<g>
								<path class="st2" d="M80.2,67.4c0,11.5-9.4,20.8-20.9,20.8s-21-9.4-21-20.8s9.4-20.8,20.9-20.8S80.2,55.9,80.2,67.4z"/>
							</g>
						</g>
					</g>
					<g>
						
							<radialGradient id="SVGID_00000039117022380379982080000008715942845106112675_" cx="301.6946" cy="430.2745" r="25.8649" gradientTransform="matrix(2.3384 0 0 2.3326 -663.4948 -955.7538)" gradientUnits="userSpaceOnUse">
							<stop  offset="0" style="stop-color:#F6F7F8"/>
							<stop  offset="0.4766" style="stop-color:#FAFBFB"/>
							<stop  offset="0.7151" style="stop-color:#FFFFFF"/>
						</radialGradient>
						<path style="fill:url(#SVGID_00000039117022380379982080000008715942845106112675_);" d="M80.2,67.4c0-5.3-2-10.2-5.2-13.8
							c-3.8-4-9.1-6.5-15.1-6.5c-11.6,0-20.9,9.4-20.9,20.8c0,5.3,2,10.2,5.2,13.8c3.8,4,9.1,6.5,15.1,6.5
							C70.7,88.3,80.2,78.9,80.2,67.4z"/>
					</g>
					<g>
						<g>
							<path class="st4" d="M78.1,58.3c1.1,2.6,1.8,5.4,1.8,8.5c0,11.5-9.4,20.8-20.9,20.8c-6.9,0-13.1-3.4-16.9-8.6
								c0.6,1,1.3,1.9,2.1,2.8c3.8,4,9.1,6.5,15.1,6.5c11.6,0,20.9-9.4,20.9-20.8C80.2,64.2,79.4,61,78.1,58.3z"/>
						</g>
					</g>
				</g>
			</g>
		</g>
		<path class="st0" d="M57.9,65.6h-4.1V36.2h-5.9l-0.2,0.2c-2,1.8-3.8,2.8-6.7,3.5L40.6,40v7.7h4.9v17.9h-5.6v9.7
			c0.5,0,16.8,0,17.9,0l0,0h1.1v-9.8H57.9z M57.9,74c-0.2,0-0.3,0-0.4,0c-0.2,0-0.4,0-0.5,0c-0.3,0-6.4-0.1-15.9-0.1
			c0-2.2,0-4.4,0-6.7h5.6V46.2h-4.9v-4.9c2.7-0.8,4.5-1.8,6.4-3.5h4.5v29.4H58L57.9,74L57.9,74z"/>
		<path class="st0" d="M77.2,65.6h-4.1V36.2h-5.9L67,36.4c-2,1.8-3.8,2.8-6.7,3.5L59.9,40v7.7h4.9v17.9h-5.6v9.7
			c0.5,0,16.8,0,17.9,0l0,0h1.1v-9.8H77.2z M77.2,74c-0.2,0-0.3,0-0.4,0c-0.2,0-0.4,0-0.5,0c-0.3,0-6.4-0.1-15.9-0.1
			c0-2.2,0-4.4,0-6.7h5.6V46.2h-4.9v-4.9c2.7-0.8,4.5-1.8,6.4-3.5h4.5v29.4h5.2L77.2,74L77.2,74z"/>
		<text transform="matrix(0.7617 0 0 1 27.2383 83.6543)" class="st0 st5 st6">What  is  the  411?</text>
		<text transform="matrix(0.7617 0 0 1 27.2383 83.6543)" class="st7 st5 st6">What  is  the  411?</text>
	</g>
</g>
<text transform="matrix(0.7119 0 0 1 294.5385 -139.0767)" class="st0" style="font-family:'Cabin-Bold'; font-size:101.4235px;">WHAT IS THE 411?</text>
<path class="st0" d="M190.5,289l-6.6,12.3h14V293c0-3.2,0.2-7.4,0.4-11.2c0.1-1.2,0.1-2.3,0.2-3.3l0.1-1.3h-2.7l-0.3,0.8
	C193.9,281.7,192.1,285.3,190.5,289z M195.2,293v5.7h-7l4.6-8.6V290c0.9-1.9,1.8-3.8,2.7-5.7C195.3,287.5,195.2,290.5,195.2,293z
	 M279.5,293.9c0,26.8-21.9,48.5-48.7,48.5c-12.9,0-25-5-34.2-14c-0.4-0.4-1.1-1.2-1.4-1.5v-13h-26.3v-13.3l0.2-0.3l21.4-36.7h22.9
	v35.1h6.6v15.2h-7.9v-2.5h5.3v-10.1h-6.6v-35.1H192l-20.5,35.1v10h26.3v14.5c0.2,0.2,0.4,0.5,0.7,0.7c8.7,8.6,20.2,13.2,32.3,13.2
	c25.4,0,46.1-20.6,46.1-45.9c0-25.3-20.7-45.9-46.1-45.9c-10.2,0-19.9,3.3-28,9.4l-1.5-2c8.5-6.4,18.8-9.9,29.6-9.9
	C257.7,245.4,279.5,267.1,279.5,293.9z"/>
<g transform="matrix(1 0 0 1 197.5247 55.8376)">
</g>
<g transform="matrix(1 0 0 1 197.4754 49.5476)">
</g>
<radialGradient id="SVGID_00000111192762311540283460000002987786352956829612_" cx="385.2532" cy="536.4887" r="20.0237" gradientTransform="matrix(2.3384 0 0 2.3326 -663.4948 -955.7538)" gradientUnits="userSpaceOnUse">
	<stop  offset="0" style="stop-color:#838282"/>
	<stop  offset="0.3173" style="stop-color:#858484;stop-opacity:0.6827"/>
	<stop  offset="0.4942" style="stop-color:#8D8C8C;stop-opacity:0.5058"/>
	<stop  offset="0.6366" style="stop-color:#9A9A9A;stop-opacity:0.3634"/>
	<stop  offset="0.7606" style="stop-color:#ADADAE;stop-opacity:0.2394"/>
	<stop  offset="0.8726" style="stop-color:#C6C6C7;stop-opacity:0.1274"/>
	<stop  offset="0.9745" style="stop-color:#E3E4E6;stop-opacity:2.551991e-02"/>
	<stop  offset="1" style="stop-color:#ECEDEF;stop-opacity:0"/>
</radialGradient>
<path style="fill:url(#SVGID_00000111192762311540283460000002987786352956829612_);" d="M216.6,313.9c0.1,0.5,0.3,1.2,0.5,1.9
	c0.6,1.9,1,3.2,1.6,4.3c0.6,0.9,1,1.1,2.6,2.6c0,0,1.3,1.3,4,4c1.6,1.6,3.3,3.2,4.8,4.8c1.4,1.3,2.8,2.8,4.2,4.1
	c0.9,0.9,1.6,1.6,2.5,2.5c0.3,0.1,0.7,0.1,1.2,0.1c0.2,0,0.5,0,0.9-0.1c16.7-2.7,34.6-16.2,36.3-37.3c0.1-0.6-0.1,0.2-0.1-0.4
	l-17.7-17.7c-0.1,0.1-31.3,23.7-31.3,23.7l-2.6,2c-0.6,0.4-1.2,0.9-1.6,1.3c-0.8,0.6-1.4,1.2-2.2,1.7c-0.7,0.5-1.3,1-1.9,1.4
	C217.3,313.3,216.9,313.6,216.6,313.9z"/>
<g>
	<g>
		<g>
			<g>
				<g>
					<path class="st2" d="M267.6,303.8c0,15-12.2,27.2-27.3,27.2s-27.4-12.2-27.4-27.2s12.2-27.2,27.3-27.2
						C255.3,276.6,267.6,288.8,267.6,303.8z"/>
				</g>
			</g>
		</g>
		<g>
			
				<radialGradient id="SVGID_00000042729417177919679610000000569442372391296672_" cx="376.8942" cy="529.0846" r="33.7427" gradientTransform="matrix(2.3384 0 0 2.3326 -663.4948 -955.7538)" gradientUnits="userSpaceOnUse">
				<stop  offset="0" style="stop-color:#F6F7F8"/>
				<stop  offset="0.4766" style="stop-color:#FAFBFB"/>
				<stop  offset="0.7151" style="stop-color:#FFFFFF"/>
			</radialGradient>
			<path style="fill:url(#SVGID_00000042729417177919679610000000569442372391296672_);" d="M267.6,303.8c0-6.9-2.6-13.3-6.8-18
				c-5-5.2-11.9-8.5-19.7-8.5c-15.1,0-27.3,12.2-27.3,27.2c0,6.9,2.6,13.3,6.8,18c5,5.2,11.9,8.5,19.7,8.5
				C255.3,331.1,267.6,318.8,267.6,303.8z"/>
		</g>
		<g>
			<g>
				<path class="st4" d="M264.9,291.9c1.5,3.4,2.3,7.1,2.3,11.1c0,15-12.2,27.2-27.3,27.2c-9,0-17.1-4.4-22-11.2
					c0.8,1.3,1.7,2.5,2.7,3.7c5,5.2,11.9,8.5,19.7,8.5c15.1,0,27.3-12.2,27.3-27.2C267.6,299.6,266.6,295.4,264.9,291.9z"/>
			</g>
		</g>
	</g>
</g>
<path class="st0" d="M238.6,301.5h-5.4v-38.4h-7.7l-0.2,0.2c-2.6,2.3-5,3.7-8.7,4.6l-0.6,0.2v10.1h6.4v23.4h-7.3v12.7
	c0.6,0,21.9,0,23.3,0l0,0h1.4v-12.8H238.6z M238.6,312.4c-0.2,0-0.4,0-0.5,0c-0.3,0-0.5,0-0.7,0c-0.4,0-8.4-0.1-20.7-0.1
	c0-2.9,0-5.8,0-8.7h7.3v-27.5h-6.4v-6.4c3.5-1.1,5.9-2.4,8.4-4.6h5.9v38.4h6.8L238.6,312.4L238.6,312.4z"/>
<path class="st0" d="M263.6,301.7l-5.4-0.1l0.5-38.4l-7.7-0.1l-0.2,0.2c-2.6,2.3-5.1,3.6-8.8,4.5l-0.6,0.2l-0.1,10.1l6.4,0.1
	l-0.3,23.4l-7.3-0.1l-0.2,12.7c0.6,0,21.9,0.3,23.3,0.3l0,0l1.4,0l0.2-12.8L263.6,301.7z M263.5,312.6c-0.2,0-0.4,0-0.5,0
	c-0.3,0-0.5,0-0.7,0c-0.4,0-8.4-0.2-20.7-0.4c0-2.9,0.1-5.8,0.1-8.7l7.3,0.1l0.4-27.5L243,276l0.1-6.4c3.5-1.1,5.9-2.3,8.5-4.5
	l5.9,0.1l-0.5,38.4l6.8,0.1L263.5,312.6L263.5,312.6z"/>
<text transform="matrix(0.7617 0 0 1 198.5928 325.0281)" class="st0 st5" style="font-size:12.0071px;">What  is  the  411?</text>
<text transform="matrix(0.9158 0 0 1 103.0996 90.2731)" class="st10 st5 st11">What  is  the  411?</text>
</svg>
