<?xml version="1.0" encoding="utf-8"?>
<!-- Generator: Adobe Illustrator 25.4.1, SVG Export Plug-In . SVG Version: 6.00 Build 0)  -->
<svg version="1.1" xmlns="http://www.w3.org/2000/svg" xmlns:xlink="http://www.w3.org/1999/xlink" x="0px" y="0px"
	 viewBox="0 0 355 97" style="enable-background:new 0 0 355 97;" xml:space="preserve">
<style type="text/css">
	.st0{fill:#2A50A0;}
	.st1{fill:url(#SVGID_1_);}
	.st2{fill:#FFFFFF;}
	.st3{fill:url(#SVGID_00000066499131599120424060000009521544841572572319_);}
	.st4{fill:#ECEDEF;}
	.st5{font-family:'BodoniBT-Book';}
	.st6{font-size:12.0071px;}
	.st7{fill:none;stroke:#2A50A0;stroke-width:0.75;stroke-miterlimit:10;}
</style>
<g id="Layer_2">
</g>
<g id="Layer_1">
	<g>
		<path class="st0" d="M124.6,43.6l-6.6,12.3h14v-8.3c0-3.2,0.2-7.4,0.4-11.2c0.1-1.2,0.1-2.3,0.2-3.3l0.1-1.3H130l-0.3,0.8
			C128,36.3,126.2,39.9,124.6,43.6z M129.3,47.6v5.7h-7l4.6-8.6v-0.1c0.9-1.9,1.8-3.8,2.7-5.7C129.4,42.1,129.3,45.1,129.3,47.6z
			 M213.6,48.5c0,26.8-21.9,48.5-48.7,48.5c-12.9,0-25-5-34.2-14c-0.4-0.4-1.1-1.2-1.4-1.5v-13H103V55.2l0.2-0.3l21.4-36.7h22.9
			v35.1h6.6v15.2h-7.9V66h5.3V55.9h-6.6V20.8h-18.8l-20.5,35.1v10h26.3v14.5c0.2,0.2,0.4,0.5,0.7,0.7c8.7,8.6,20.2,13.2,32.3,13.2
			c25.4,0,46.1-20.6,46.1-45.9S190.3,2.5,164.9,2.5c-10.2,0-19.9,3.3-28,9.4l-1.5-2c8.5-6.4,18.8-9.9,29.6-9.9
			C191.8,0,213.6,21.7,213.6,48.5z"/>
		<g>
			<g transform="matrix(1 0 0 1 197.5247 55.8376)">
			</g>
			<g transform="matrix(1 0 0 1 197.4754 49.5476)">
			</g>
		</g>
		<g>
			
				<radialGradient id="SVGID_1_" cx="331.5893" cy="162.493" r="20.0237" gradientTransform="matrix(2.3384 0 0 -2.3326 -603.936 429.2532)" gradientUnits="userSpaceOnUse">
				<stop  offset="0" style="stop-color:#838282"/>
				<stop  offset="0.3173" style="stop-color:#858484;stop-opacity:0.6827"/>
				<stop  offset="0.4942" style="stop-color:#8D8C8C;stop-opacity:0.5058"/>
				<stop  offset="0.6366" style="stop-color:#9A9A9A;stop-opacity:0.3634"/>
				<stop  offset="0.7606" style="stop-color:#ADADAE;stop-opacity:0.2394"/>
				<stop  offset="0.8726" style="stop-color:#C6C6C7;stop-opacity:0.1274"/>
				<stop  offset="0.9745" style="stop-color:#E3E4E6;stop-opacity:2.551991e-02"/>
				<stop  offset="1" style="stop-color:#ECEDEF;stop-opacity:0"/>
			</radialGradient>
			<path class="st1" d="M150.7,68.5c0.1,0.5,0.3,1.2,0.5,1.9c0.6,1.9,1,3.2,1.6,4.3c0.6,0.9,1,1.1,2.6,2.6c0,0,1.3,1.3,4,4
				c1.6,1.6,3.3,3.2,4.8,4.8c1.4,1.3,2.8,2.8,4.2,4.1c0.9,0.9,1.6,1.6,2.5,2.5c0.3,0.1,0.7,0.1,1.2,0.1c0.2,0,0.5,0,0.9-0.1
				c16.7-2.7,34.6-16.2,36.3-37.3c0.1-0.6-0.1,0.2-0.1-0.4l-17.7-17.7c-0.1,0.1-31.3,23.7-31.3,23.7l-2.6,2
				c-0.6,0.4-1.2,0.9-1.6,1.3c-0.8,0.6-1.4,1.2-2.2,1.7c-0.7,0.5-1.3,1-1.9,1.4C151.4,67.9,151,68.2,150.7,68.5z"/>
			<g>
				<g>
					<g>
						<g>
							<g>
								<path class="st2" d="M201.7,58.4c0,15-12.2,27.2-27.3,27.2S147,73.4,147,58.4s12.2-27.2,27.3-27.2
									C189.4,31.2,201.7,43.4,201.7,58.4z"/>
							</g>
						</g>
					</g>
					<g>
						
							<radialGradient id="SVGID_00000158002413276155410800000018252397699522708923_" cx="323.2303" cy="169.8971" r="33.7427" gradientTransform="matrix(2.3384 0 0 -2.3326 -603.936 429.2532)" gradientUnits="userSpaceOnUse">
							<stop  offset="0" style="stop-color:#F6F7F8"/>
							<stop  offset="0.4766" style="stop-color:#FAFBFB"/>
							<stop  offset="0.7151" style="stop-color:#FFFFFF"/>
						</radialGradient>
						<path style="fill:url(#SVGID_00000158002413276155410800000018252397699522708923_);" d="M201.7,58.4c0-6.9-2.6-13.3-6.8-18
							c-5-5.2-11.9-8.5-19.7-8.5c-15.1,0-27.3,12.2-27.3,27.2c0,6.9,2.6,13.3,6.8,18c5,5.2,11.9,8.5,19.7,8.5
							C189.4,85.7,201.7,73.4,201.7,58.4z"/>
					</g>
					<g>
						<g>
							<path class="st4" d="M199,46.5c1.5,3.4,2.3,7.1,2.3,11.1c0,15-12.2,27.2-27.3,27.2c-9,0-17.1-4.4-22-11.2
								c0.8,1.3,1.7,2.5,2.7,3.7c5,5.2,11.9,8.5,19.7,8.5c15.1,0,27.3-12.2,27.3-27.2C201.7,54.2,200.7,50,199,46.5z"/>
						</g>
					</g>
				</g>
			</g>
		</g>
		<path class="st0" d="M172.7,56.1h-5.4V17.7h-7.7l-0.2,0.2c-2.6,2.3-5,3.7-8.7,4.6l-0.6,0.2v10.1h6.4v23.4h-7.3v12.7
			c0.6,0,21.9,0,23.3,0l0,0h1.4V56.1H172.7z M172.7,67c-0.2,0-0.4,0-0.5,0c-0.3,0-0.5,0-0.7,0c-0.4,0-8.4-0.1-20.7-0.1
			c0-2.9,0-5.8,0-8.7h7.3V30.7h-6.4v-6.4c3.5-1.1,5.9-2.4,8.4-4.6h5.9v38.4h6.8L172.7,67L172.7,67z"/>
		<path class="st0" d="M197.9,56.1h-5.4V17.7h-7.7l-0.2,0.2c-2.6,2.3-5,3.7-8.7,4.6l-0.6,0.2v10.1h6.4v23.4h-7.3v12.7
			c0.6,0,21.9,0,23.3,0l0,0h1.4V56.1H197.9z M197.9,67c-0.2,0-0.4,0-0.5,0c-0.3,0-0.5,0-0.7,0c-0.4,0-8.4-0.1-20.7-0.1
			c0-2.9,0-5.8,0-8.7h7.3V30.7h-6.4v-6.4c3.5-1.1,5.9-2.4,8.4-4.6h5.9v38.4h6.8L197.9,67L197.9,67z"/>
		<text transform="matrix(0.7617 0 0 1 132.6641 79.5902)" class="st0 st5 st6">What  is  the  411?</text>
		<text transform="matrix(0.7617 0 0 1 132.6641 79.5902)" class="st7 st5 st6">What  is  the  411?</text>
	</g>
</g>
</svg>
